<?xml version="1.0" encoding="utf-8"?>
<!-- Generator: Adobe Illustrator 16.0.4, SVG Export Plug-In . SVG Version: 6.00 Build 0)  -->
<!DOCTYPE svg PUBLIC "-//W3C//DTD SVG 1.1//EN" "http://www.w3.org/Graphics/SVG/1.1/DTD/svg11.dtd">
<svg version="1.1" id="Layer_1" xmlns="http://www.w3.org/2000/svg" xmlns:xlink="http://www.w3.org/1999/xlink" x="0px" y="0px"
	 width="1726.972px" height="564px" viewBox="0 120.5 1726.972 564" enable-background="new 0 120.5 1726.972 564"
	 xml:space="preserve">
<g>
	<g>
		<path fill="#FFFFFF" d="M320.332,296.879L206.159,494.633l1.716,0.99l75.622-130.979h32.998l9.451,9.451l8.75-8.749h22.877
			l75.215,130.277l1.716-0.99l-49.843-86.331l68.101-117.952h52.203l14.561,14.56l13.463-13.461h36.358l117.882,204.174l1.717-0.99
			L510.738,185.971l-127.221,220.35L320.332,296.879z M568.204,289.468h-36.036l-12.643,12.64l-13.739-13.74h-51.879l56.831-98.435
			L568.204,289.468z M333.876,363.365l-7.93,7.928l-8.631-8.631H284.64l35.691-61.82l36.096,62.522L333.876,363.365L333.876,363.365
			z"/>
		<path fill="#FFFFFF" d="M518.281,535.104V493.77c19.754-0.531,35.669-16.729,35.669-36.608c0-20.214-16.445-36.659-36.659-36.659
			c-20.215,0-36.66,16.445-36.66,36.659c0,19.88,15.915,36.077,35.668,36.608v41.333L518.281,535.104L518.281,535.104z
			 M482.613,457.161c0-19.121,15.557-34.678,34.678-34.678s34.677,15.557,34.677,34.678c0,18.787-15.025,34.097-33.687,34.627
			v-34.627H516.3v34.627C497.64,491.258,482.613,475.947,482.613,457.161z"/>
		<path fill="#FFFFFF" d="M597.516,535.104v-28.062c13.579-0.526,24.473-11.706,24.473-25.411c0-14.039-11.423-25.46-25.463-25.46
			c-14.039,0-25.461,11.421-25.461,25.46c0,13.705,10.894,24.884,24.471,25.411v28.062H597.516z M573.046,481.63
			c0-12.946,10.533-23.479,23.479-23.479c12.945,0,23.48,10.532,23.48,23.479c0,12.612-10.005,22.905-22.49,23.429V481.63h-1.98
			v23.429C583.049,504.535,573.046,494.242,573.046,481.63z"/>
		<path fill="#FFFFFF" d="M122.66,289.29c-3.966-2.113-8.414-3.226-12.922-3.226c-15.176,0-27.522,12.346-27.522,27.521
			c0,0.772,0.035,1.55,0.105,2.357c-6.535,0.454-11.712,5.917-11.712,12.565c0,1.262,0.193,2.519,0.557,3.682
			c0.938,3.754,4.294,6.376,8.163,6.376h127.094c3.658,0,6.854-2.312,7.999-5.771c1.875-2.738,2.865-5.916,2.865-9.202
			c0-9.016-7.335-16.35-16.353-16.35c-1.549,0-3.091,0.227-4.6,0.673c-0.626-1.757-1.453-3.468-2.468-5.106
			c0.884-2.661,1.333-5.428,1.333-8.236c0-8.756-4.359-16.886-11.661-21.747c-4.293-2.862-9.293-4.373-14.459-4.373
			c-9.25,0-17.793,4.896-22.49,12.832c-2.024-0.594-4.107-0.896-6.204-0.896C133.384,280.39,126.826,283.701,122.66,289.29z
			 M140.385,282.372c2.153,0,4.291,0.35,6.354,1.039l0.784,0.261l0.399-0.724c4.251-7.718,12.358-12.513,21.158-12.513
			c4.773,0,9.393,1.397,13.361,4.041c6.748,4.493,10.777,12.005,10.777,20.098c0,2.744-0.463,5.448-1.375,8.035l-0.162,0.457
			l0.264,0.408c1.225,1.904,2.173,3.917,2.818,5.989l0.31,0.989l0.974-0.354c1.596-0.579,3.24-0.873,4.889-0.873
			c7.925,0,14.371,6.446,14.371,14.369c0,2.929-0.896,5.759-2.594,8.191l-0.133,0.272c-0.844,2.707-3.317,4.526-6.155,4.526H79.329
			c-2.958,0-5.523-2.004-6.257-4.929c-0.319-1.027-0.481-2.086-0.481-3.146c0-5.846,4.751-10.604,10.783-10.604
			c0.007,0,0.014,0,0.021,0l1.151,0.03l-0.142-1.144c-0.14-1.124-0.207-2.173-0.207-3.207c0-14.082,11.457-25.54,25.54-25.54
			c4.461,0,8.86,1.174,12.72,3.398l0.795,0.457l0.517-0.756C127.527,285.651,133.739,282.372,140.385,282.372z"/>
		<path fill="#FFFFFF" d="M276.248,232.389H422.3c4.149,0,7.769-2.626,9.058-6.548c2.147-3.124,3.281-6.754,3.281-10.508
			c0-10.28-8.362-18.643-18.639-18.643c-1.809,0-3.615,0.272-5.383,0.809c-4.307-12.359-15.845-20.594-29.023-20.594
			c-0.479,0-0.958,0.016-1.432,0.039c0.143-1.187,0.216-2.378,0.216-3.557c0-8.511-3.673-16.65-10.076-22.33
			c-5.481-4.863-12.513-7.541-19.794-7.541c-16.472,0-29.871,13.401-29.871,29.871c0,0.144,0,0.287,0.004,0.428
			c-3.068-0.969-6.24-1.461-9.447-1.461c-17.358,0-31.478,14.121-31.478,31.477c0,0.923,0.042,1.875,0.132,2.847
			c-7.505,0.445-13.473,6.691-13.473,14.304c0,1.428,0.217,2.858,0.633,4.195C268.074,229.422,271.874,232.389,276.248,232.389z
			 M280.705,208.633l0.012-0.948l0.009-0.002l0.2,0.964l1.147,0.027l-0.141-1.14c-0.158-1.27-0.235-2.516-0.235-3.704
			c0-16.263,13.229-29.496,29.495-29.496c3.46,0,6.88,0.612,10.157,1.817l1.427,0.524l-0.098-1.519
			c-0.036-0.586-0.062-1.177-0.062-1.771c0-15.378,12.511-27.889,27.889-27.889c6.796,0,13.36,2.5,18.48,7.042
			c5.979,5.304,9.408,12.902,9.408,20.847c0,1.48-0.123,2.984-0.363,4.472l-0.201,1.252l1.262-0.106
			c0.824-0.069,1.656-0.118,2.5-0.118c12.646,0,23.678,8.102,27.45,20.162l0.31,0.989l0.974-0.354
			c1.855-0.672,3.764-1.012,5.674-1.012c9.185,0,16.658,7.474,16.658,16.662c0,3.396-1.041,6.68-3.011,9.498l-0.137,0.273
			c-0.982,3.173-3.882,5.304-7.21,5.304H276.248c-3.464,0-6.473-2.35-7.334-5.765c-0.37-1.2-0.557-2.431-0.557-3.662
			C268.356,214.171,273.895,208.633,280.705,208.633z"/>
		<path fill="#FFFFFF" d="M630.153,265.087H748.01c3.619,0,6.765-2.454,7.631-5.918c0.351-1.142,0.528-2.312,0.528-3.481
			c0-6.179-4.794-11.259-10.856-11.719c0.062-0.726,0.094-1.426,0.094-2.119c0-15.243-13.491-27.45-29.027-25.358
			c0.021-0.399,0.031-0.801,0.031-1.208c0-10.03-5.161-19.11-13.803-24.286c-4.408-2.642-9.43-4.037-14.521-4.037
			c-15.621,0-28.327,12.706-28.327,28.323c0,1.602,0.141,3.216,0.414,4.814c-9.396,1.07-17.525,7.504-20.713,16.406
			c-1.386-0.405-2.803-0.608-4.223-0.608c-8.4,0-15.233,6.833-15.233,15.233c0,3.058,0.921,6.015,2.664,8.563
			C623.744,262.925,626.73,265.087,630.153,265.087z M635.239,237.879c1.521,0,3.038,0.271,4.511,0.803l0.974,0.354l0.311-0.989
			c2.806-8.975,10.999-15.435,20.389-16.073l1.14-0.077l-0.237-1.117c-0.385-1.817-0.58-3.667-0.58-5.496
			c0-14.525,11.817-26.341,26.345-26.341c4.731,0,9.4,1.298,13.499,3.754c8.041,4.816,12.842,13.259,12.842,22.587
			c0,0.778-0.043,1.542-0.105,2.301l-0.108,1.294l1.277-0.238c1.447-0.269,2.899-0.405,4.32-0.405
			c13.021,0,23.612,10.593,23.612,23.613c0,0.952-0.062,1.921-0.19,2.965l0.062,1.101h1.121c5.387,0,9.772,4.383,9.772,9.772
			c0,0.971-0.149,1.947-0.455,2.951c-0.66,2.63-3.014,4.466-5.724,4.466H630.153c-2.604,0-4.868-1.668-5.64-4.149l-0.134-0.272
			c-1.564-2.241-2.394-4.854-2.394-7.553C621.987,243.823,627.932,237.879,635.239,237.879z"/>
		<polygon fill="#FFFFFF" points="756.727,425.225 782.118,399.834 782.118,419.656 746.575,455.198 747.977,456.6 782.118,422.458 
			782.118,442.279 734.995,489.404 736.396,490.805 782.118,445.082 782.118,464.903 719.673,527.35 721.074,528.751 
			782.118,467.705 782.118,487.527 740.903,528.743 742.305,530.145 782.118,490.329 782.118,546.887 784.1,546.887 784.1,490.329 
			823.913,530.145 825.314,528.743 784.1,487.527 784.1,467.705 845.145,528.751 846.545,527.35 784.1,464.903 784.1,445.082 
			829.821,490.805 831.222,489.404 784.1,442.279 784.1,422.458 818.241,456.6 819.643,455.198 784.1,419.656 784.1,399.834 
			809.49,425.225 810.892,423.824 783.108,396.042 755.326,423.824 		"/>
		<polygon fill="#FFFFFF" points="304.613,501.334 306.014,499.933 274.344,468.265 274.344,459.543 296.807,482.004 
			298.208,480.603 274.344,456.741 274.344,448.017 290.909,464.578 292.311,463.177 274.344,445.215 274.344,436.49 
			286.448,448.594 287.849,447.193 273.354,432.697 258.857,447.193 260.258,448.594 272.362,436.49 272.362,445.215 
			254.398,463.177 255.799,464.578 272.362,448.017 272.362,456.741 248.498,480.603 249.899,482.004 272.362,459.543 
			272.362,468.265 240.692,499.933 242.093,501.334 272.362,471.066 272.362,479.792 251.509,500.642 252.91,502.042 
			272.362,482.594 272.362,510.231 274.344,510.231 274.344,482.594 293.798,502.042 295.199,500.642 274.344,479.792 
			274.344,471.066 		"/>
		<polygon fill="#FFFFFF" points="410.992,522.083 412.393,520.682 367.106,475.392 367.106,461.761 399.86,494.515 
			401.262,493.113 367.106,458.958 367.106,445.325 391.449,469.664 392.85,468.263 367.106,442.523 367.106,428.884 
			385.088,446.87 386.489,445.469 366.116,425.092 345.739,445.469 347.14,446.87 365.125,428.884 365.125,442.523 339.38,468.263 
			340.781,469.664 365.125,445.325 365.125,458.958 330.968,493.113 332.369,494.515 365.125,461.761 365.125,475.392 
			319.835,520.682 321.236,522.083 365.125,478.194 365.125,491.831 335.262,521.693 336.663,523.095 365.125,494.633 
			365.125,535.069 367.106,535.069 367.106,494.633 395.568,523.095 396.97,521.693 367.106,491.831 367.106,478.194 		"/>
		<path fill="#FFFFFF" d="M38.267,232.389h93.902c0.548,0,0.991-0.443,0.991-0.991s-0.443-0.991-0.991-0.991H38.267
			c-0.548,0-0.991,0.443-0.991,0.991C37.276,231.945,37.719,232.389,38.267,232.389z"/>
		<path fill="#FFFFFF" d="M736.157,304.501h93.901c0.549,0,0.991-0.443,0.991-0.991c0-0.548-0.442-0.991-0.991-0.991h-93.901
			c-0.548,0-0.991,0.443-0.991,0.991C735.166,304.058,735.609,304.501,736.157,304.501z"/>
		<path fill="#FFFFFF" d="M150.403,623.321H95.882c-0.546,0-0.991,0.442-0.991,0.991c0,0.547,0.444,0.989,0.991,0.989h54.521
			c0.547,0,0.991-0.442,0.991-0.989C151.394,623.765,150.95,623.321,150.403,623.321z"/>
		<path fill="#FFFFFF" d="M666.801,658.33H561.294c-0.546,0-0.991,0.443-0.991,0.99c0,0.548,0.445,0.99,0.991,0.99h105.507
			c0.546,0,0.991-0.442,0.991-0.99C667.792,658.773,667.347,658.33,666.801,658.33z"/>
		<path fill="#FFFFFF" d="M418.867,594.241H313.36c-0.546,0-0.991,0.442-0.991,0.99s0.445,0.99,0.991,0.99h105.507
			c0.546,0,0.991-0.442,0.991-0.99C419.858,594.685,419.413,594.241,418.867,594.241z"/>
		<path fill="#FFFFFF" d="M107.499,646.848H1.993c-0.546,0-0.991,0.443-0.991,0.99c0,0.548,0.445,0.991,0.991,0.991H107.5
			c0.546,0,0.991-0.443,0.991-0.991C108.491,647.291,108.045,646.848,107.499,646.848z"/>
		<path fill="#FFFFFF" d="M24.648,256.663h27.238c0.547,0,0.991-0.443,0.991-0.991c0-0.548-0.443-0.991-0.991-0.991H24.648
			c-0.546,0-0.991,0.443-0.991,0.991C23.657,256.22,24.102,256.663,24.648,256.663z"/>
		<path fill="#FFFFFF" d="M224.765,178.787h21.461c0.549,0,0.991-0.443,0.991-0.991c0-0.547-0.442-0.991-0.991-0.991h-21.461
			c-0.547,0-0.99,0.443-0.99,0.991S224.218,178.787,224.765,178.787z"/>
		<path fill="#FFFFFF" d="M645.879,340.549c-0.546,0-0.991,0.443-0.991,0.991s0.445,0.991,0.991,0.991h21.462
			c0.548,0,0.991-0.443,0.991-0.991c0-0.547-0.443-0.991-0.991-0.991H645.879z"/>
		<path fill="#FFFFFF" d="M164.712,541.118l22.365,6.559l-4.953,12.528l-0.784,1.98l-5.093,12.885
			c-0.201,0.509,0.048,1.084,0.558,1.285c0.119,0.049,0.242,0.068,0.364,0.068c0.395,0,0.767-0.237,0.921-0.627l5.382-13.611
			l0.784-1.98l4.312-10.904l6.312,10.904l1.146,1.98l18.553,32.055H108.156l16.993-22.438h18.799h0.534h12.375
			c0.548,0,0.991-0.441,0.991-0.99c0-0.548-0.443-0.99-0.991-0.99h-11.069l5.033-7.635l1.306-1.98L164.712,541.118z M1.001,562.188
			h147.446l-5.034,7.634h-19.25l-19.995,26.4h113.845l-19.699-34.034h665.673v-1.981H197.167l-7.912-13.67l-0.198-0.345
			l-25.192-7.388l-14.11,21.401H1.001V562.188z"/>
		<path fill="#FFFFFF" d="M145.396,521.287c0.433,0,0.788-0.353,0.788-0.785v-38.521l0.377-0.019
			c12.307-0.548,22.457-9.43,22.86-9.786c9.186-9.496,13.723-20.303,13.486-32.123c-0.51-25.08-21.929-45.775-22.858-46.662
			c-6.028-6.516-12.418-7.021-14.233-7.021c-0.171,0-0.297,0.002-0.426,0.01c-0.082-0.006-0.233-0.014-0.447-0.014
			c-1.805,0-8.165,0.503-14.163,6.992c-0.914,0.869-22.38,21.557-22.891,46.694c-0.239,11.816,4.321,22.647,13.529,32.169
			c0.431,0.375,10.682,9.2,22.812,9.74l0.379,0.019v38.521C144.61,520.936,144.962,521.287,145.396,521.287z M144.194,480.392
			c-11.474-0.576-21.564-9.197-21.691-9.31c-8.882-9.184-13.269-19.609-13.041-30.981c0.482-24.06,21.551-44.778,22.436-45.636
			c5.59-6.047,11.424-6.518,13.079-6.518h0.839c1.654,0,7.493,0.474,13.112,6.552c0.219,0.207,21.907,21.112,22.405,45.59
			c0.231,11.379-4.134,21.784-12.997,30.951c-0.099,0.087-10.106,8.768-21.737,9.353l-0.416,0.02V451.99
			c0-0.437-0.354-0.788-0.788-0.788s-0.786,0.352-0.786,0.788v28.421L144.194,480.392z"/>
		<path fill="#FFFFFF" d="M76.973,535.426c0.366,0,0.664-0.299,0.664-0.664v-29.517l0.195-0.002
			c10.125-0.13,16.855-2.496,20.003-7.036c3.308-4.776,1.366-10.127,1.283-10.345l-12.744-31.173
			c-2.569-8.079-9.34-8.225-9.407-8.227c-0.068,0.002-6.833,0.159-9.38,8.178L54.818,487.88c-0.083,0.226-2.003,5.573,1.292,10.326
			c3.145,4.54,9.874,6.908,20.002,7.038l0.196,0.002v29.517C76.309,535.127,76.606,535.426,76.973,535.426z M76.108,503.916
			c-9.644-0.124-16.002-2.296-18.896-6.448c-2.86-4.107-1.232-8.89-1.158-9.103l12.781-31.274c2.262-7.113,7.891-7.295,8.132-7.299
			c0.058,0,5.848,0.083,8.163,7.35l12.755,31.208c0.071,0.204,1.711,5.004-1.154,9.119c-2.893,4.152-9.249,6.324-18.893,6.448
			l-0.201,0.004v-18.1c0-0.364-0.298-0.662-0.664-0.662c-0.367,0-0.665,0.298-0.665,0.662v18.1L76.108,503.916z"/>
		<path fill="#FFFFFF" d="M474.658,592.664l17.889,5.246l-3.962,10.021l-0.628,1.584l-4.072,10.307
			c-0.161,0.406,0.037,0.866,0.445,1.027c0.095,0.039,0.193,0.056,0.29,0.056c0.314,0,0.614-0.189,0.737-0.501l4.304-10.889
			l0.628-1.584l3.448-8.723l5.049,8.723l0.917,1.584l14.84,25.64h-85.122l13.592-17.947h15.036h0.427h9.898
			c0.438,0,0.793-0.354,0.793-0.792c0-0.438-0.354-0.793-0.793-0.793h-8.853l4.025-6.106l1.044-1.584L474.658,592.664z
			 M461.647,609.516l-4.025,6.106h-15.397l-15.991,21.117h91.059l-15.757-27.225l-0.917-1.584l-6.328-10.934l-0.16-0.276
			l-20.147-5.908l-11.287,17.118L461.647,609.516z"/>
		<path fill="#FFFFFF" d="M793.436,605.358l1.506,2.28l5.798,8.795h-12.751c-0.631,0-1.144,0.511-1.144,1.143
			s0.513,1.141,1.144,1.141h14.256h0.616h21.652l19.577,25.85H721.494l21.373-36.927l1.32-2.28l7.271-12.562l4.967,12.562
			l0.904,2.28l6.198,15.682c0.177,0.447,0.606,0.722,1.062,0.722c0.14,0,0.281-0.022,0.418-0.079
			c0.588-0.231,0.873-0.895,0.643-1.479l-5.865-14.844l-0.904-2.28l-5.706-14.435l25.765-7.556L793.436,605.358z M796.17,605.358
			l-16.256-24.654l-29.019,8.509l-0.23,0.398l-9.114,15.747l-1.32,2.28l-22.693,39.208h131.146l-23.032-30.413h-22.177l-5.798-8.795
			L796.17,605.358z"/>
		<path fill="#FFFFFF" d="M723.843,595.231h-54.521c-0.547,0-0.99,0.442-0.99,0.99s0.443,0.99,0.99,0.99h54.521
			c0.547,0,0.991-0.442,0.991-0.99C724.834,595.675,724.39,595.231,723.843,595.231z"/>
	</g>
	<g>
		<path fill="#FFFFFF" d="M1183.318,296.879l-114.174,197.754l1.717,0.99l75.621-130.979h32.998l9.451,9.451l8.75-8.749h22.877
			l75.215,130.277l1.717-0.99l-49.844-86.331l68.102-117.952h52.203l14.561,14.56l13.463-13.461h36.357l117.883,204.174l1.717-0.99
			l-178.207-308.662l-127.221,220.35L1183.318,296.879z M1431.189,289.468h-36.035l-12.643,12.64l-13.74-13.74h-51.879
			l56.832-98.435L1431.189,289.468z M1196.861,363.365l-7.93,7.928l-8.631-8.631h-32.676l35.691-61.82l36.096,62.522
			L1196.861,363.365L1196.861,363.365z"/>
		<path fill="#FFFFFF" d="M1381.268,535.104V493.77c19.754-0.531,35.668-16.729,35.668-36.608c0-20.214-16.445-36.659-36.658-36.659
			c-20.215,0-36.66,16.445-36.66,36.659c0,19.88,15.914,36.077,35.668,36.608v41.333L1381.268,535.104L1381.268,535.104z
			 M1345.6,457.161c0-19.121,15.557-34.678,34.678-34.678s34.676,15.557,34.676,34.678c0,18.787-15.025,34.097-33.686,34.627
			v-34.627h-1.982v34.627C1360.625,491.258,1345.6,475.947,1345.6,457.161z"/>
		<path fill="#FFFFFF" d="M1460.502,535.104v-28.062c13.578-0.526,24.473-11.706,24.473-25.411c0-14.039-11.424-25.46-25.463-25.46
			s-25.461,11.421-25.461,25.46c0,13.705,10.893,24.884,24.471,25.411v28.062H1460.502z M1436.031,481.63
			c0-12.946,10.533-23.479,23.48-23.479c12.945,0,23.48,10.532,23.48,23.479c0,12.612-10.006,22.905-22.49,23.429V481.63h-1.98
			v23.429C1446.035,504.535,1436.031,494.242,1436.031,481.63z"/>
		<path fill="#FFFFFF" d="M985.646,289.29c-3.967-2.113-8.414-3.226-12.923-3.226c-15.176,0-27.522,12.346-27.522,27.521
			c0,0.772,0.035,1.55,0.105,2.357c-6.535,0.454-11.712,5.917-11.712,12.565c0,1.262,0.192,2.519,0.558,3.682
			c0.938,3.754,4.293,6.376,8.162,6.376h127.094c3.658,0,6.854-2.312,8-5.771c1.875-2.738,2.865-5.916,2.865-9.202
			c0-9.016-7.336-16.35-16.354-16.35c-1.549,0-3.09,0.227-4.6,0.673c-0.625-1.757-1.453-3.468-2.467-5.106
			c0.883-2.661,1.332-5.428,1.332-8.236c0-8.756-4.359-16.886-11.66-21.747c-4.293-2.862-9.293-4.373-14.459-4.373
			c-9.25,0-17.793,4.896-22.49,12.832c-2.024-0.594-4.107-0.896-6.204-0.896C996.369,280.39,989.812,283.701,985.646,289.29z
			 M1003.371,282.372c2.152,0,4.291,0.35,6.354,1.039l0.784,0.261l0.399-0.724c4.25-7.718,12.357-12.513,21.158-12.513
			c4.772,0,9.393,1.397,13.361,4.041c6.748,4.493,10.777,12.005,10.777,20.098c0,2.744-0.463,5.448-1.375,8.035l-0.162,0.457
			l0.264,0.408c1.225,1.904,2.172,3.917,2.818,5.989l0.309,0.989l0.975-0.354c1.596-0.579,3.24-0.873,4.889-0.873
			c7.924,0,14.371,6.446,14.371,14.369c0,2.929-0.896,5.759-2.594,8.191l-0.133,0.272c-0.844,2.707-3.318,4.526-6.156,4.526H942.314
			c-2.957,0-5.522-2.004-6.256-4.929c-0.32-1.027-0.482-2.086-0.482-3.146c0-5.846,4.752-10.604,10.783-10.604
			c0.008,0,0.015,0,0.021,0l1.15,0.03l-0.142-1.144c-0.14-1.124-0.206-2.173-0.206-3.207c0-14.082,11.456-25.54,25.539-25.54
			c4.461,0,8.86,1.174,12.721,3.398l0.795,0.457l0.517-0.756C990.513,285.651,996.725,282.372,1003.371,282.372z"/>
		<path fill="#FFFFFF" d="M1139.234,232.389h146.051c4.15,0,7.77-2.626,9.059-6.548c2.146-3.124,3.281-6.754,3.281-10.508
			c0-10.28-8.363-18.643-18.639-18.643c-1.809,0-3.615,0.272-5.383,0.809c-4.307-12.359-15.846-20.594-29.023-20.594
			c-0.48,0-0.959,0.016-1.432,0.039c0.143-1.187,0.215-2.378,0.215-3.557c0-8.511-3.672-16.65-10.076-22.33
			c-5.48-4.863-12.512-7.541-19.793-7.541c-16.473,0-29.871,13.401-29.871,29.871c0,0.144,0,0.287,0.004,0.428
			c-3.068-0.969-6.24-1.461-9.447-1.461c-17.359,0-31.479,14.121-31.479,31.477c0,0.923,0.043,1.875,0.133,2.847
			c-7.506,0.445-13.473,6.691-13.473,14.304c0,1.428,0.217,2.858,0.633,4.195C1131.061,229.422,1134.859,232.389,1139.234,232.389z
			 M1143.691,208.633l0.012-0.948l0.008-0.002l0.201,0.964l1.146,0.027l-0.141-1.14c-0.158-1.27-0.234-2.516-0.234-3.704
			c0-16.263,13.229-29.496,29.494-29.496c3.461,0,6.881,0.612,10.158,1.817l1.426,0.524l-0.098-1.519
			c-0.035-0.586-0.061-1.177-0.061-1.771c0-15.378,12.51-27.889,27.889-27.889c6.795,0,13.359,2.5,18.48,7.042
			c5.979,5.304,9.408,12.902,9.408,20.847c0,1.48-0.123,2.984-0.363,4.472l-0.201,1.252l1.262-0.106
			c0.824-0.069,1.656-0.118,2.5-0.118c12.646,0,23.678,8.102,27.449,20.162l0.311,0.989l0.973-0.354
			c1.855-0.672,3.764-1.012,5.674-1.012c9.186,0,16.658,7.474,16.658,16.662c0,3.396-1.041,6.68-3.01,9.498l-0.137,0.273
			c-0.982,3.173-3.883,5.304-7.211,5.304h-146.051c-3.465,0-6.473-2.35-7.334-5.765c-0.371-1.2-0.557-2.431-0.557-3.662
			C1131.342,214.171,1136.881,208.633,1143.691,208.633z"/>
		<path fill="#FFFFFF" d="M1493.139,265.087h117.857c3.619,0,6.764-2.454,7.631-5.918c0.35-1.142,0.527-2.312,0.527-3.481
			c0-6.179-4.793-11.259-10.855-11.719c0.062-0.726,0.094-1.426,0.094-2.119c0-15.243-13.492-27.45-29.027-25.358
			c0.02-0.399,0.031-0.801,0.031-1.208c0-10.03-5.162-19.11-13.803-24.286c-4.408-2.642-9.43-4.037-14.521-4.037
			c-15.621,0-28.326,12.706-28.326,28.323c0,1.602,0.141,3.216,0.414,4.814c-9.396,1.07-17.525,7.504-20.713,16.406
			c-1.387-0.405-2.803-0.608-4.223-0.608c-8.4,0-15.234,6.833-15.234,15.233c0,3.058,0.922,6.015,2.664,8.563
			C1486.73,262.925,1489.717,265.087,1493.139,265.087z M1498.225,237.879c1.521,0,3.039,0.271,4.512,0.803l0.973,0.354l0.311-0.989
			c2.807-8.975,11-15.435,20.389-16.073l1.141-0.077l-0.238-1.117c-0.385-1.817-0.58-3.667-0.58-5.496
			c0-14.525,11.818-26.341,26.346-26.341c4.73,0,9.4,1.298,13.498,3.754c8.041,4.816,12.842,13.259,12.842,22.587
			c0,0.778-0.043,1.542-0.105,2.301l-0.107,1.294l1.277-0.238c1.447-0.269,2.898-0.405,4.32-0.405
			c13.02,0,23.611,10.593,23.611,23.613c0,0.952-0.061,1.921-0.189,2.965l0.061,1.101h1.121c5.387,0,9.773,4.383,9.773,9.772
			c0,0.971-0.15,1.947-0.455,2.951c-0.66,2.63-3.014,4.466-5.725,4.466h-117.859c-2.604,0-4.867-1.668-5.639-4.149l-0.135-0.272
			c-1.564-2.241-2.393-4.854-2.393-7.553C1484.973,243.823,1490.918,237.879,1498.225,237.879z"/>
		<polygon fill="#FFFFFF" points="1619.713,425.225 1645.104,399.834 1645.104,419.656 1609.561,455.198 1610.963,456.6 
			1645.104,422.458 1645.104,442.279 1597.98,489.404 1599.383,490.805 1645.104,445.082 1645.104,464.903 1582.658,527.35 
			1584.061,528.751 1645.104,467.705 1645.104,487.527 1603.889,528.743 1605.291,530.145 1645.104,490.329 1645.104,546.887 
			1647.086,546.887 1647.086,490.329 1686.898,530.145 1688.301,528.743 1647.086,487.527 1647.086,467.705 1708.131,528.751 
			1709.531,527.35 1647.086,464.903 1647.086,445.082 1692.807,490.805 1694.207,489.404 1647.086,442.279 1647.086,422.458 
			1681.227,456.6 1682.629,455.198 1647.086,419.656 1647.086,399.834 1672.477,425.225 1673.877,423.824 1646.094,396.042 
			1618.312,423.824 		"/>
		<polygon fill="#FFFFFF" points="1167.6,501.334 1169,499.933 1137.33,468.265 1137.33,459.543 1159.793,482.004 1161.193,480.603 
			1137.33,456.741 1137.33,448.017 1153.895,464.578 1155.297,463.177 1137.33,445.215 1137.33,436.49 1149.434,448.594 
			1150.834,447.193 1136.34,432.697 1121.844,447.193 1123.244,448.594 1135.348,436.49 1135.348,445.215 1117.385,463.177 
			1118.785,464.578 1135.348,448.017 1135.348,456.741 1111.484,480.603 1112.885,482.004 1135.348,459.543 1135.348,468.265 
			1103.678,499.933 1105.078,501.334 1135.348,471.066 1135.348,479.792 1114.494,500.642 1115.896,502.042 1135.348,482.594 
			1135.348,510.231 1137.33,510.231 1137.33,482.594 1156.783,502.042 1158.186,500.642 1137.33,479.792 1137.33,471.066 		"/>
		<polygon fill="#FFFFFF" points="1273.979,522.083 1275.379,520.682 1230.092,475.392 1230.092,461.761 1262.846,494.515 
			1264.248,493.113 1230.092,458.958 1230.092,445.325 1254.436,469.664 1255.836,468.263 1230.092,442.523 1230.092,428.884 
			1248.074,446.87 1249.475,445.469 1229.102,425.092 1208.725,445.469 1210.125,446.87 1228.111,428.884 1228.111,442.523 
			1202.365,468.263 1203.768,469.664 1228.111,445.325 1228.111,458.958 1193.953,493.113 1195.355,494.515 1228.111,461.761 
			1228.111,475.392 1182.82,520.682 1184.223,522.083 1228.111,478.194 1228.111,491.831 1198.248,521.693 1199.648,523.095 
			1228.111,494.633 1228.111,535.069 1230.092,535.069 1230.092,494.633 1258.555,523.095 1259.955,521.693 1230.092,491.831 
			1230.092,478.194 		"/>
		<path fill="#FFFFFF" d="M901.253,232.389h93.901c0.549,0,0.992-0.443,0.992-0.991s-0.443-0.991-0.992-0.991h-93.901
			c-0.548,0-0.991,0.443-0.991,0.991C900.262,231.945,900.705,232.389,901.253,232.389z"/>
		<path fill="#FFFFFF" d="M1599.143,304.501h93.902c0.549,0,0.99-0.443,0.99-0.991c0-0.548-0.441-0.991-0.99-0.991h-93.902
			c-0.547,0-0.99,0.443-0.99,0.991C1598.152,304.058,1598.596,304.501,1599.143,304.501z"/>
		<path fill="#FFFFFF" d="M1013.389,623.321h-54.521c-0.545,0-0.99,0.442-0.99,0.991c0,0.547,0.443,0.989,0.99,0.989h54.521
			c0.547,0,0.991-0.442,0.991-0.989C1014.38,623.765,1013.936,623.321,1013.389,623.321z"/>
		<path fill="#FFFFFF" d="M1529.787,658.33h-105.508c-0.545,0-0.99,0.443-0.99,0.99c0,0.548,0.445,0.99,0.99,0.99h105.508
			c0.545,0,0.99-0.442,0.99-0.99C1530.777,658.773,1530.332,658.33,1529.787,658.33z"/>
		<path fill="#FFFFFF" d="M1281.854,594.241h-105.508c-0.545,0-0.99,0.442-0.99,0.99s0.445,0.99,0.99,0.99h105.508
			c0.545,0,0.99-0.442,0.99-0.99C1282.844,594.685,1282.398,594.241,1281.854,594.241z"/>
		<path fill="#FFFFFF" d="M970.484,646.848H864.979c-0.546,0-0.99,0.443-0.99,0.99c0,0.548,0.445,0.991,0.99,0.991h105.508
			c0.545,0,0.99-0.443,0.99-0.991C971.477,647.291,971.031,646.848,970.484,646.848z"/>
		<path fill="#FFFFFF" d="M887.634,256.663h27.238c0.547,0,0.991-0.443,0.991-0.991c0-0.548-0.443-0.991-0.991-0.991h-27.238
			c-0.546,0-0.991,0.443-0.991,0.991C886.643,256.22,887.088,256.663,887.634,256.663z"/>
		<path fill="#FFFFFF" d="M1087.75,178.787h21.461c0.549,0,0.992-0.443,0.992-0.991c0-0.547-0.443-0.991-0.992-0.991h-21.461
			c-0.547,0-0.99,0.443-0.99,0.991S1087.203,178.787,1087.75,178.787z"/>
		<path fill="#FFFFFF" d="M1508.865,340.549c-0.547,0-0.992,0.443-0.992,0.991s0.445,0.991,0.992,0.991h21.461
			c0.549,0,0.992-0.443,0.992-0.991c0-0.547-0.443-0.991-0.992-0.991H1508.865z"/>
		<path fill="#FFFFFF" d="M1027.697,541.118l22.365,6.559l-4.953,12.528l-0.783,1.98l-5.094,12.885
			c-0.201,0.509,0.049,1.084,0.559,1.285c0.119,0.049,0.242,0.068,0.363,0.068c0.396,0,0.768-0.237,0.922-0.627l5.381-13.611
			l0.785-1.98l4.312-10.904l6.311,10.904l1.146,1.98l18.553,32.055H971.143l16.992-22.438h18.799h0.534h12.375
			c0.548,0,0.991-0.441,0.991-0.99c0-0.548-0.443-0.99-0.991-0.99h-11.069l5.033-7.635l1.307-1.98L1027.697,541.118z
			 M863.986,562.188h147.447l-5.035,7.634h-19.25l-19.994,26.4h113.844l-19.699-34.034h665.674v-1.981h-666.82l-7.912-13.67
			l-0.197-0.345l-25.193-7.388l-14.109,21.401H863.986V562.188z"/>
		<path fill="#FFFFFF" d="M1008.382,521.287c0.433,0,0.788-0.353,0.788-0.785v-38.521l0.377-0.019
			c12.307-0.548,22.457-9.43,22.859-9.786c9.187-9.496,13.723-20.303,13.486-32.123c-0.51-25.08-21.929-45.775-22.857-46.662
			c-6.028-6.516-12.418-7.021-14.233-7.021c-0.171,0-0.297,0.002-0.426,0.01c-0.082-0.006-0.233-0.014-0.447-0.014
			c-1.805,0-8.165,0.503-14.163,6.992c-0.914,0.869-22.38,21.557-22.891,46.694c-0.239,11.816,4.32,22.647,13.529,32.169
			c0.431,0.375,10.682,9.2,22.812,9.74l0.379,0.019v38.521C1007.596,520.936,1007.947,521.287,1008.382,521.287z M1007.18,480.392
			c-11.474-0.576-21.564-9.197-21.691-9.31c-8.881-9.184-13.269-19.609-13.041-30.981c0.482-24.06,21.552-44.778,22.437-45.636
			c5.591-6.047,11.425-6.518,13.079-6.518h0.839c1.654,0,7.493,0.474,13.112,6.552c0.219,0.207,21.906,21.112,22.404,45.59
			c0.231,11.379-4.133,21.784-12.996,30.951c-0.1,0.087-10.106,8.768-21.737,9.353l-0.416,0.02V451.99
			c0-0.437-0.354-0.788-0.788-0.788s-0.786,0.352-0.786,0.788v28.421L1007.18,480.392z"/>
		<path fill="#FFFFFF" d="M939.959,535.426c0.365,0,0.664-0.299,0.664-0.664v-29.517l0.195-0.002
			c10.125-0.13,16.854-2.496,20.002-7.036c3.309-4.776,1.367-10.127,1.283-10.345l-12.744-31.173
			c-2.568-8.079-9.34-8.225-9.406-8.227c-0.068,0.002-6.834,0.159-9.381,8.178l-12.769,31.239
			c-0.083,0.226-2.003,5.573,1.292,10.326c3.145,4.54,9.874,6.908,20.002,7.038l0.196,0.002v29.517
			C939.295,535.127,939.592,535.426,939.959,535.426z M939.094,503.916c-9.645-0.124-16.002-2.296-18.896-6.448
			c-2.859-4.107-1.231-8.89-1.157-9.103l12.78-31.274c2.263-7.113,7.892-7.295,8.133-7.299c0.058,0,5.848,0.083,8.162,7.35
			l12.756,31.208c0.07,0.204,1.711,5.004-1.154,9.119c-2.893,4.152-9.249,6.324-18.893,6.448l-0.201,0.004v-18.1
			c0-0.364-0.299-0.662-0.664-0.662c-0.367,0-0.665,0.298-0.665,0.662v18.1L939.094,503.916z"/>
		<path fill="#FFFFFF" d="M1337.645,592.664l17.889,5.246l-3.963,10.021l-0.627,1.584l-4.072,10.307
			c-0.162,0.406,0.037,0.866,0.445,1.027c0.094,0.039,0.193,0.056,0.289,0.056c0.314,0,0.615-0.189,0.738-0.501l4.303-10.889
			l0.629-1.584l3.447-8.723l5.049,8.723l0.918,1.584l14.84,25.64h-85.123l13.592-17.947h15.037h0.426h9.898
			c0.439,0,0.793-0.354,0.793-0.792c0-0.438-0.354-0.793-0.793-0.793h-8.852l4.025-6.106l1.043-1.584L1337.645,592.664z
			 M1324.633,609.516l-4.025,6.106h-15.396l-15.992,21.117h91.059l-15.756-27.225l-0.918-1.584l-6.328-10.934l-0.16-0.276
			l-20.146-5.908l-11.287,17.118L1324.633,609.516z"/>
		<path fill="#FFFFFF" d="M1656.422,605.358l1.506,2.28l5.797,8.795h-12.75c-0.631,0-1.145,0.511-1.145,1.143
			s0.514,1.141,1.145,1.141h14.256h0.615h21.652l19.578,25.85H1584.48l21.373-36.927l1.32-2.28l7.27-12.562l4.967,12.562l0.904,2.28
			l6.199,15.682c0.176,0.447,0.605,0.722,1.061,0.722c0.141,0,0.281-0.022,0.418-0.079c0.588-0.231,0.873-0.895,0.643-1.479
			l-5.865-14.844l-0.904-2.28l-5.705-14.435l25.764-7.556L1656.422,605.358z M1659.156,605.358l-16.256-24.654l-29.02,8.509
			l-0.23,0.398l-9.113,15.747l-1.32,2.28l-22.693,39.208h131.146l-23.033-30.413h-22.176l-5.799-8.795L1659.156,605.358z"/>
		<path fill="#FFFFFF" d="M1586.828,595.231h-54.52c-0.547,0-0.99,0.442-0.99,0.99s0.443,0.99,0.99,0.99h54.52
			c0.547,0,0.992-0.442,0.992-0.99C1587.82,595.675,1587.375,595.231,1586.828,595.231z"/>
	</g>
</g>
</svg>
